<?xml version="1.0" encoding="UTF-8"?>
<svg xmlns="http://www.w3.org/2000/svg" xmlns:xlink="http://www.w3.org/1999/xlink" width="1094pt" height="599pt" viewBox="0 0 1094 599" version="1.1">
<g id="surface108">
<path style=" stroke:none;fill-rule:nonzero;fill:rgb(79.6%,23.5%,20%);fill-opacity:1;" d="M 724.75 189.25 L 724.75 99.25 L 803.011719 38.597656 L 842.140625 99.25 L 920.402344 38.597656 L 959.53125 99.25 L 1037.792969 38.597656 L 1037.792969 128.597656 L 959.53125 189.25 L 920.402344 128.597656 L 842.140625 189.25 L 803.011719 128.597656 Z M 724.75 189.25 "/>
<path style=" stroke:none;fill-rule:nonzero;fill:rgb(22%,59.6%,14.9%);fill-opacity:1;" d="M 724.75 369.25 L 724.75 279.25 L 803.011719 218.597656 L 842.140625 279.25 L 920.402344 218.597656 L 959.53125 279.25 L 1037.792969 218.597656 L 1037.792969 308.597656 L 959.53125 369.25 L 920.402344 308.597656 L 842.140625 369.25 L 803.011719 308.597656 Z M 724.75 369.25 "/>
<path style=" stroke:none;fill-rule:nonzero;fill:rgb(58.4%,34.5%,69.8%);fill-opacity:1;" d="M 724.75 549.25 L 724.75 459.25 L 803.011719 398.597656 L 842.140625 459.25 L 920.402344 398.597656 L 959.53125 459.25 L 1037.792969 398.597656 L 1037.792969 488.597656 L 959.53125 549.25 L 920.402344 488.597656 L 842.140625 549.25 L 803.011719 488.597656 Z M 724.75 549.25 "/>
<path style=" stroke:none;fill-rule:nonzero;fill:rgb(0%,0%,0%);fill-opacity:1;" d="M 111.976563 548.476563 L 108.925781 548.324219 L 105.976563 547.898438 L 103.125 547.183594 L 100.375 546.1875 L 97.75 544.941406 L 95.304688 543.503906 L 93.027344 541.859375 L 90.925781 540.023438 L 89.011719 538.003906 L 87.316406 535.828125 L 85.835938 533.496094 L 84.574219 531.007813 L 83.558594 528.394531 L 82.835938 525.722656 L 82.398438 522.972656 L 82.261719 520.160156 L 82.390625 516.804688 L 82.796875 513.574219 L 83.46875 510.464844 L 84.414063 507.484375 L 85.59375 504.660156 L 87.003906 502.035156 L 88.636719 499.597656 L 90.496094 497.363281 L 92.554688 495.335938 L 94.824219 493.546875 L 97.289063 491.984375 L 99.96875 490.660156 L 102.8125 489.59375 L 105.820313 488.839844 L 108.980469 488.382813 L 112.300781 488.238281 L 115.246094 488.355469 L 118.074219 488.710938 L 120.773438 489.308594 L 123.359375 490.148438 L 125.78125 491.191406 L 128.023438 492.421875 L 130.085938 493.828125 L 131.972656 495.425781 L 133.65625 497.171875 L 135.152344 499.070313 L 136.445313 501.105469 L 137.546875 503.285156 L 138.410156 505.570313 L 139.035156 507.945313 L 139.40625 510.398438 L 139.539063 512.945313 L 99.488281 512.945313 L 99.902344 517.628906 L 100.859375 522.097656 L 102.273438 526.199219 L 103.136719 528.058594 L 104.113281 529.796875 L 105.171875 531.375 L 106.328125 532.789063 L 107.570313 534.023438 L 108.90625 535.097656 L 110.3125 535.957031 L 111.792969 536.570313 L 113.351563 536.9375 L 114.992188 537.0625 L 117.863281 536.8125 L 120.695313 536.066406 L 123.378906 534.878906 L 125.863281 533.320313 L 128.066406 531.429688 L 129.957031 529.257813 L 131.445313 526.878906 L 132.488281 524.359375 L 141.476563 525.703125 L 140.695313 528.011719 L 139.714844 530.253906 L 138.527344 532.425781 L 137.140625 534.535156 L 135.582031 536.539063 L 133.902344 538.417969 L 132.097656 540.160156 L 130.171875 541.773438 L 128.132813 543.238281 L 126.003906 544.546875 L 123.785156 545.6875 L 121.476563 546.671875 L 119.113281 547.457031 L 116.742188 548.019531 L 114.359375 548.355469 Z M 119.40625 506.96875 L 119.019531 504.507813 L 118.300781 502.289063 L 117.285156 500.335938 L 116.039063 498.679688 L 114.554688 497.339844 L 112.863281 496.339844 L 110.980469 495.710938 L 108.960938 495.503906 L 107.355469 495.703125 L 105.785156 496.3125 L 104.285156 497.292969 L 102.929688 498.625 L 101.734375 500.289063 L 100.75 502.261719 L 100.011719 504.5 L 99.59375 506.96875 Z M 153.535156 492.542969 L 171.03125 487.699219 L 171.03125 547.183594 L 153.535156 547.183594 Z M 152.78125 470.957031 L 152.960938 469.234375 L 153.507813 467.621094 L 154.375 466.160156 L 155.527344 464.902344 L 156.921875 463.867188 L 158.542969 463.070313 L 160.3125 462.566406 L 162.203125 462.398438 L 164.082031 462.566406 L 165.863281 463.070313 L 167.472656 463.867188 L 168.878906 464.902344 L 170.03125 466.160156 L 170.925781 467.621094 L 171.488281 469.234375 L 171.679688 470.957031 L 171.488281 472.679688 L 170.925781 474.296875 L 170.03125 475.746094 L 168.878906 476.988281 L 167.472656 478.003906 L 165.863281 478.789063 L 164.082031 479.289063 L 162.203125 479.460938 L 160.3125 479.289063 L 158.542969 478.789063 L 156.921875 478.003906 L 155.527344 476.988281 L 154.375 475.746094 L 153.507813 474.296875 L 152.960938 472.679688 Z M 221.3125 507.617188 L 221.183594 505.53125 L 220.828125 503.6875 L 220.257813 502.105469 L 219.535156 500.808594 L 218.660156 499.789063 L 217.675781 499.058594 L 216.605469 498.613281 L 215.496094 498.464844 L 214.273438 498.578125 L 212.886719 498.921875 L 209.789063 500.214844 L 206.507813 502.234375 L 203.277344 504.871094 L 203.277344 547.183594 L 185.675781 547.183594 L 185.675781 489.421875 L 203.277344 489.421875 L 203.277344 493.941406 L 205.328125 492.554688 L 207.460938 491.375 L 209.664063 490.390625 L 211.945313 489.609375 L 214.253906 489.007813 L 216.574219 488.578125 L 218.882813 488.320313 L 221.203125 488.238281 L 222.953125 488.320313 L 224.664063 488.578125 L 226.332031 489.007813 L 227.960938 489.609375 L 229.507813 490.355469 L 230.957031 491.234375 L 232.304688 492.238281 L 233.558594 493.378906 L 234.6875 494.625 L 235.707031 495.976563 L 236.597656 497.425781 L 237.378906 498.976563 L 237.996094 500.605469 L 238.445313 502.292969 L 238.710938 504.035156 L 238.808594 505.839844 L 238.808594 547.183594 L 221.3125 547.183594 Z M 290.214844 543.792969 L 286.871094 545.753906 L 283.214844 547.238281 L 279.429688 548.160156 L 277.566406 548.390625 L 275.734375 548.476563 L 272.148438 548.195313 L 268.734375 547.371094 L 265.503906 546.046875 L 262.492188 544.277344 L 259.707031 542.089844 L 257.1875 539.511719 L 254.96875 536.609375 L 253.125 533.457031 L 251.632813 530.0625 L 250.515625 526.457031 L 249.804688 522.703125 L 249.574219 518.867188 L 249.722656 515.976563 L 250.195313 513.132813 L 250.976563 510.324219 L 252.074219 507.5625 L 253.433594 504.886719 L 255.023438 502.367188 L 256.835938 499.988281 L 258.882813 497.765625 L 261.121094 495.714844 L 263.554688 493.882813 L 266.167969 492.253906 L 268.976563 490.847656 L 271.914063 489.699219 L 274.964844 488.886719 L 278.121094 488.394531 L 281.386719 488.238281 L 283.84375 488.332031 L 286.179688 488.613281 L 288.3125 489.082031 L 290.214844 489.742188 L 290.214844 466.164063 L 307.660156 461.320313 L 307.660156 547.183594 L 290.214844 547.183594 Z M 290.214844 507.832031 L 289.988281 505.152344 L 289.328125 502.71875 L 288.300781 500.570313 L 287.011719 498.761719 L 285.488281 497.300781 L 283.78125 496.203125 L 281.96875 495.519531 L 280.148438 495.289063 L 278.949219 495.382813 L 277.789063 495.671875 L 276.660156 496.152344 L 275.574219 496.824219 L 274.523438 497.664063 L 273.550781 498.65625 L 271.804688 501.101563 L 270.355469 504.101563 L 269.246094 507.617188 L 268.539063 511.542969 L 268.304688 515.800781 L 268.574219 520.480469 L 269.382813 524.953125 L 270.660156 529.046875 L 271.449219 530.898438 L 272.34375 532.625 L 273.316406 534.191406 L 274.371094 535.597656 L 275.496094 536.828125 L 276.703125 537.898438 L 277.957031 538.757813 L 279.269531 539.371094 L 280.628906 539.738281 L 282.035156 539.863281 L 284.132813 539.566406 L 286.367188 538.707031 L 288.46875 537.359375 L 290.214844 535.664063 Z M 356.757813 507.617188 L 356.660156 505.515625 L 356.390625 503.679688 L 355.933594 502.109375 L 355.304688 500.808594 L 354.515625 499.78125 L 353.628906 499.050781 L 352.632813 498.609375 L 351.535156 498.464844 L 350.335938 498.578125 L 348.921875 498.921875 L 345.640625 500.242188 L 342.113281 502.261719 L 340.402344 503.460938 L 338.832031 504.761719 L 338.832031 547.183594 L 321.121094 547.183594 L 321.121094 466.164063 L 338.832031 461.320313 L 338.832031 493.941406 L 340.898438 492.554688 L 343.089844 491.363281 L 345.394531 490.363281 L 347.820313 489.554688 L 350.273438 488.929688 L 352.699219 488.488281 L 355.09375 488.214844 L 357.457031 488.128906 L 359.175781 488.214844 L 360.851563 488.480469 L 362.46875 488.917969 L 364.050781 489.53125 L 365.542969 490.292969 L 366.941406 491.179688 L 368.234375 492.1875 L 369.433594 493.324219 L 370.511719 494.570313 L 371.472656 495.925781 L 372.3125 497.382813 L 373.039063 498.949219 L 373.613281 500.589844 L 374.023438 502.289063 L 374.269531 504.035156 L 374.359375 505.839844 L 374.359375 547.183594 L 356.757813 547.183594 Z M 416.78125 548.261719 L 413.394531 548.113281 L 410.140625 547.691406 L 407.015625 546.984375 L 404.023438 546 L 401.183594 544.757813 L 398.554688 543.3125 L 396.121094 541.648438 L 393.902344 539.78125 L 391.886719 537.714844 L 390.105469 535.46875 L 388.558594 533.042969 L 387.253906 530.441406 L 386.199219 527.695313 L 385.453125 524.855469 L 385 521.90625 L 384.859375 518.867188 L 385 515.589844 L 385.453125 512.453125 L 386.199219 509.441406 L 387.253906 506.566406 L 388.558594 503.847656 L 390.105469 501.332031 L 391.886719 499.007813 L 393.902344 496.878906 L 396.121094 494.953125 L 398.546875 493.257813 L 401.167969 491.777344 L 403.996094 490.527344 L 406.976563 489.523438 L 410.09375 488.808594 L 413.34375 488.378906 L 416.726563 488.238281 L 420.105469 488.371094 L 423.363281 488.792969 L 426.496094 489.488281 L 429.511719 490.472656 L 432.355469 491.691406 L 435 493.128906 L 437.441406 494.769531 L 439.683594 496.632813 L 441.703125 498.683594 L 443.496094 500.898438 L 445.054688 503.285156 L 446.386719 505.839844 L 447.441406 508.527344 L 448.203125 511.316406 L 448.660156 514.207031 L 448.8125 517.199219 L 448.660156 520.351563 L 448.203125 523.414063 L 447.441406 526.378906 L 446.386719 529.257813 L 445.054688 531.996094 L 443.496094 534.554688 L 441.703125 536.933594 L 439.683594 539.136719 L 437.441406 541.136719 L 435.007813 542.917969 L 432.367188 544.472656 L 429.539063 545.8125 L 426.535156 546.878906 L 423.410156 547.644531 L 420.15625 548.101563 Z M 418.828125 541.207031 L 420.007813 541.105469 L 421.144531 540.8125 L 422.226563 540.324219 L 423.265625 539.648438 L 425.140625 537.816406 L 426.738281 535.449219 L 428.03125 532.605469 L 429.027344 529.363281 L 429.652344 525.835938 L 429.863281 522.152344 L 429.65625 516.765625 L 429.054688 511.707031 L 428.582031 509.332031 L 427.980469 507.121094 L 427.246094 505.054688 L 426.386719 503.148438 L 425.378906 501.414063 L 424.242188 499.867188 L 422.960938 498.507813 L 421.542969 497.335938 L 419.960938 496.390625 L 418.222656 495.71875 L 416.3125 495.3125 L 414.25 495.179688 L 413.230469 495.273438 L 412.234375 495.5625 L 411.25 496.042969 L 410.292969 496.714844 L 408.492188 498.511719 L 406.929688 500.835938 L 405.617188 503.621094 L 404.585938 506.808594 L 403.917969 510.277344 L 403.699219 513.914063 L 403.949219 519.351563 L 404.722656 524.464844 L 405.285156 526.863281 L 405.976563 529.105469 L 406.785156 531.195313 L 407.710938 533.132813 L 408.738281 534.890625 L 409.878906 536.460938 L 411.121094 537.835938 L 412.472656 539.027344 L 413.914063 539.976563 L 415.460938 540.660156 L 417.09375 541.066406 Z M 471.257813 488.34375 L 488.160156 524.574219 L 505.386719 488.34375 L 517.394531 488.34375 L 488.863281 548.476563 L 480.839844 548.476563 L 452.847656 488.34375 Z M 551.148438 548.476563 L 548.097656 548.324219 L 545.148438 547.898438 L 542.296875 547.183594 L 539.546875 546.1875 L 536.921875 544.941406 L 534.476563 543.503906 L 532.199219 541.859375 L 530.097656 540.023438 L 528.183594 538.003906 L 526.488281 535.828125 L 525.007813 533.496094 L 523.746094 531.007813 L 522.730469 528.394531 L 522.007813 525.722656 L 521.570313 522.972656 L 521.433594 520.160156 L 521.5625 516.804688 L 521.96875 513.574219 L 522.640625 510.464844 L 523.585938 507.484375 L 524.765625 504.660156 L 526.175781 502.035156 L 527.808594 499.597656 L 529.667969 497.363281 L 531.726563 495.335938 L 533.996094 493.546875 L 536.460938 491.984375 L 539.140625 490.660156 L 541.984375 489.59375 L 544.992188 488.839844 L 548.152344 488.382813 L 551.472656 488.238281 L 554.417969 488.355469 L 557.246094 488.710938 L 559.945313 489.308594 L 562.53125 490.148438 L 564.953125 491.191406 L 567.195313 492.421875 L 569.257813 493.828125 L 571.144531 495.425781 L 572.828125 497.171875 L 574.324219 499.070313 L 575.617188 501.105469 L 576.71875 503.285156 L 577.582031 505.570313 L 578.207031 507.945313 L 578.578125 510.398438 L 578.710938 512.945313 L 538.660156 512.945313 L 539.074219 517.628906 L 540.03125 522.097656 L 541.445313 526.199219 L 542.308594 528.058594 L 543.285156 529.796875 L 544.34375 531.375 L 545.5 532.789063 L 546.742188 534.023438 L 548.078125 535.097656 L 549.484375 535.957031 L 550.964844 536.570313 L 552.523438 536.9375 L 554.164063 537.0625 L 557.035156 536.8125 L 559.867188 536.066406 L 562.550781 534.878906 L 565.035156 533.320313 L 567.238281 531.429688 L 569.128906 529.257813 L 570.617188 526.878906 L 571.660156 524.359375 L 580.648438 525.703125 L 579.867188 528.011719 L 578.886719 530.253906 L 577.699219 532.425781 L 576.3125 534.535156 L 574.753906 536.539063 L 573.074219 538.417969 L 571.269531 540.160156 L 569.34375 541.773438 L 567.304688 543.238281 L 565.175781 544.546875 L 562.957031 545.6875 L 560.648438 546.671875 L 558.285156 547.457031 L 555.914063 548.019531 L 553.53125 548.355469 Z M 558.578125 506.96875 L 558.191406 504.507813 L 557.472656 502.289063 L 556.457031 500.335938 L 555.210938 498.679688 L 553.726563 497.339844 L 552.035156 496.339844 L 550.152344 495.710938 L 548.132813 495.503906 L 546.527344 495.703125 L 544.957031 496.3125 L 543.457031 497.292969 L 542.101563 498.625 L 540.90625 500.289063 L 539.921875 502.261719 L 539.183594 504.5 L 538.765625 506.96875 Z M 627.050781 507.617188 L 626.921875 505.53125 L 626.566406 503.6875 L 625.996094 502.105469 L 625.273438 500.808594 L 624.398438 499.789063 L 623.414063 499.058594 L 622.34375 498.613281 L 621.234375 498.464844 L 620.011719 498.578125 L 618.625 498.921875 L 615.527344 500.214844 L 612.246094 502.234375 L 609.015625 504.871094 L 609.015625 547.183594 L 591.414063 547.183594 L 591.414063 489.421875 L 609.015625 489.421875 L 609.015625 493.941406 L 611.066406 492.554688 L 613.199219 491.375 L 615.402344 490.390625 L 617.683594 489.609375 L 619.992188 489.007813 L 622.3125 488.578125 L 624.621094 488.320313 L 626.941406 488.238281 L 628.691406 488.320313 L 630.402344 488.578125 L 632.070313 489.007813 L 633.699219 489.609375 L 635.246094 490.355469 L 636.695313 491.234375 L 638.042969 492.238281 L 639.296875 493.378906 L 640.425781 494.625 L 641.445313 495.976563 L 642.335938 497.425781 L 643.117188 498.976563 L 643.734375 500.605469 L 644.183594 502.292969 L 644.449219 504.035156 L 644.546875 505.839844 L 644.546875 547.183594 L 627.050781 547.183594 Z M 651.277344 547.183594 Z "/>
<path style=" stroke:none;fill-rule:nonzero;fill:rgb(25.1%,38.8%,84.7%);fill-opacity:1;" d="M 173.5 470.5 C 173.5 476.714844 168.464844 481.75 162.25 481.75 C 156.035156 481.75 151 476.714844 151 470.5 C 151 464.285156 156.035156 459.25 162.25 459.25 C 168.464844 459.25 173.5 464.285156 173.5 470.5 "/>
<path style=" stroke:none;fill-rule:nonzero;fill:rgb(0%,0%,0%);fill-opacity:1;" d="M 186.382813 355.210938 C 186.382813 369.339844 184.792969 380.75 181.617188 389.4375 C 178.4375 398.132813 173.917969 404.875 168.050781 409.679688 C 162.191406 414.484375 155.160156 417.703125 146.964844 419.328125 C 138.769531 420.945313 129.648438 421.757813 119.625 421.757813 C 106.050781 421.757813 95.664063 419.640625 88.464844 415.402344 C 81.257813 411.160156 77.65625 406.078125 77.65625 400.136719 C 77.65625 395.195313 79.664063 391.027344 83.691406 387.636719 C 87.71875 384.242188 93.125 382.550781 99.90625 382.550781 C 104.996094 382.550781 109.0625 383.929688 112.09375 386.683594 C 115.132813 389.4375 117.644531 392.160156 119.625 394.84375 C 121.878906 397.808594 123.789063 399.785156 125.34375 400.773438 C 126.894531 401.765625 128.308594 402.261719 129.585938 402.261719 C 132.265625 402.261719 134.316406 400.671875 135.730469 397.492188 C 137.140625 394.316406 137.84375 388.132813 137.84375 378.949219 L 137.84375 204.71875 L 186.382813 191.367188 Z M 255.507813 196.027344 L 255.507813 308.152344 C 255.507813 311.265625 256.109375 314.195313 257.3125 316.949219 C 258.511719 319.703125 260.175781 322.078125 262.292969 324.054688 C 264.414063 326.03125 266.882813 327.621094 269.710938 328.820313 C 272.539063 330.023438 275.578125 330.625 278.828125 330.625 C 282.5 330.625 286.671875 328.566406 291.757813 325.007813 C 299.804688 319.367188 304.683594 315.492188 304.683594 310.90625 C 304.683594 309.808594 304.683594 196.027344 304.683594 196.027344 L 353.007813 196.027344 L 353.007813 355.210938 L 304.683594 355.210938 L 304.683594 340.371094 C 298.328125 345.742188 291.542969 350.046875 284.335938 353.300781 C 277.128906 356.550781 270.136719 358.175781 263.351563 358.175781 C 255.445313 358.175781 248.089844 356.867188 241.308594 354.25 C 234.523438 351.636719 228.59375 348.070313 223.507813 343.550781 C 218.417969 339.03125 214.429688 333.730469 211.527344 327.648438 C 208.632813 321.578125 207.183594 315.074219 207.183594 308.152344 L 207.183594 196.027344 Z M 420.78125 355.210938 L 372.667969 355.210938 L 372.667969 132.019531 L 420.78125 118.667969 Z M 440.878906 204.71875 L 489.203125 191.367188 L 489.203125 355.210938 L 440.878906 355.210938 Z M 590.175781 272.96875 C 585.507813 274.953125 580.808594 277.246094 576.074219 279.859375 C 571.34375 282.472656 567.03125 285.335938 563.148438 288.445313 C 559.257813 291.546875 556.117188 294.875 553.714844 298.40625 C 551.3125 301.933594 550.109375 305.609375 550.109375 309.425781 C 550.109375 312.394531 550.5 315.257813 551.277344 318.011719 C 552.050781 320.765625 553.152344 323.132813 554.5625 325.109375 C 555.976563 327.085938 557.53125 328.675781 559.230469 329.875 C 560.921875 331.078125 562.761719 331.679688 564.738281 331.679688 C 568.691406 331.679688 572.683594 330.476563 576.710938 328.074219 C 580.742188 325.671875 585.222656 322.640625 590.175781 318.964844 Z M 638.703125 355.210938 L 590.175781 355.210938 L 590.175781 342.488281 C 587.488281 344.75 584.871094 346.839844 582.332031 348.742188 C 579.789063 350.648438 576.925781 352.3125 573.746094 353.722656 C 570.566406 355.136719 567 356.230469 563.039063 357.011719 C 559.082031 357.789063 554.417969 358.175781 549.054688 358.175781 C 541.703125 358.175781 535.097656 357.117188 529.238281 355 C 523.371094 352.875 518.390625 349.980469 514.296875 346.304688 C 510.195313 342.636719 507.050781 338.285156 504.863281 333.265625 C 502.671875 328.257813 501.574219 322.78125 501.574219 316.847656 C 501.574219 310.765625 502.738281 305.257813 505.074219 300.308594 C 507.402344 295.363281 510.582031 290.917969 514.609375 286.957031 C 518.640625 283 523.335938 279.472656 528.703125 276.359375 C 534.070313 273.253906 539.835938 270.390625 545.980469 267.773438 C 552.125 265.160156 558.519531 262.765625 565.164063 260.574219 C 571.796875 258.382813 578.375 256.296875 584.871094 254.320313 L 590.175781 253.046875 L 590.175781 237.363281 C 590.175781 227.191406 588.226563 219.984375 584.34375 215.742188 C 580.457031 211.503906 575.261719 209.386719 568.765625 209.386719 C 561.132813 209.386719 555.832031 211.222656 552.867188 214.894531 C 549.898438 218.570313 548.414063 223.015625 548.414063 228.246094 C 548.414063 231.210938 548.097656 234.113281 547.460938 236.9375 C 546.828125 239.765625 545.730469 242.234375 544.179688 244.359375 C 542.625 246.476563 540.398438 248.175781 537.5 249.441406 C 534.605469 250.714844 530.964844 251.351563 526.585938 251.351563 C 519.804688 251.351563 514.296875 249.40625 510.054688 245.523438 C 505.8125 241.632813 503.699219 236.726563 503.699219 230.789063 C 503.699219 225.28125 505.566406 220.160156 509.308594 215.429688 C 513.058594 210.6875 518.105469 206.625 524.46875 203.242188 C 530.828125 199.84375 538.171875 197.160156 546.507813 195.183594 C 554.84375 193.207031 563.675781 192.21875 573 192.21875 C 584.445313 192.21875 594.304688 193.242188 602.574219 195.285156 C 610.835938 197.335938 617.65625 200.265625 623.023438 204.082031 C 628.390625 207.898438 632.347656 212.492188 634.890625 217.859375 C 637.4375 223.226563 638.703125 229.242188 638.703125 235.878906 Z M 638.703125 355.210938 "/>
<path style=" stroke:none;fill-rule:nonzero;fill:rgb(25.1%,38.8%,84.7%);fill-opacity:1;" d="M 195.914063 150.417969 C 195.914063 168.546875 181.21875 183.230469 163.101563 183.230469 C 144.980469 183.230469 130.289063 168.546875 130.289063 150.417969 C 130.289063 132.296875 144.980469 117.605469 163.101563 117.605469 C 181.21875 117.605469 195.914063 132.296875 195.914063 150.417969 "/>
<path style=" stroke:none;fill-rule:nonzero;fill:rgb(22%,59.6%,14.9%);fill-opacity:1;" d="M 539.6875 82.132813 C 539.6875 100.253906 524.996094 114.945313 506.875 114.945313 C 488.75 114.945313 474.0625 100.253906 474.0625 82.132813 C 474.0625 64.015625 488.75 49.320313 506.875 49.320313 C 524.996094 49.320313 539.6875 64.015625 539.6875 82.132813 "/>
<path style=" stroke:none;fill-rule:nonzero;fill:rgb(58.4%,34.5%,69.8%);fill-opacity:1;" d="M 579.101563 150.417969 C 579.101563 168.546875 564.40625 183.230469 546.289063 183.230469 C 528.167969 183.230469 513.476563 168.546875 513.476563 150.417969 C 513.476563 132.296875 528.167969 117.605469 546.289063 117.605469 C 564.40625 117.605469 579.101563 132.296875 579.101563 150.417969 "/>
<path style=" stroke:none;fill-rule:nonzero;fill:rgb(79.6%,23.5%,20%);fill-opacity:1;" d="M 500.261719 150.417969 C 500.261719 168.546875 485.570313 183.230469 467.449219 183.230469 C 449.324219 183.230469 434.636719 168.546875 434.636719 150.417969 C 434.636719 132.296875 449.324219 117.605469 467.449219 117.605469 C 485.570313 117.605469 500.261719 132.296875 500.261719 150.417969 "/>
</g>
</svg>
