<?xml version="1.0" encoding="UTF-8"?>
<svg xmlns="http://www.w3.org/2000/svg" xmlns:xlink="http://www.w3.org/1999/xlink" width="1094pt" height="599pt" viewBox="0 0 1094 599" version="1.1">
<g id="surface15">
<path style=" stroke:none;fill-rule:nonzero;fill:rgb(79.6%,23.5%,20%);fill-opacity:1;" d="M 724.75 189.25 L 724.75 99.25 L 803.011719 38.597656 L 842.140625 99.25 L 920.402344 38.597656 L 959.53125 99.25 L 1037.792969 38.597656 L 1037.792969 128.597656 L 959.53125 189.25 L 920.402344 128.597656 L 842.140625 189.25 L 803.011719 128.597656 Z M 724.75 189.25 "/>
<path style=" stroke:none;fill-rule:nonzero;fill:rgb(22%,59.6%,14.9%);fill-opacity:1;" d="M 724.75 369.25 L 724.75 279.25 L 803.011719 218.597656 L 842.140625 279.25 L 920.402344 218.597656 L 959.53125 279.25 L 1037.792969 218.597656 L 1037.792969 308.597656 L 959.53125 369.25 L 920.402344 308.597656 L 842.140625 369.25 L 803.011719 308.597656 Z M 724.75 369.25 "/>
<path style=" stroke:none;fill-rule:nonzero;fill:rgb(58.4%,34.5%,69.8%);fill-opacity:1;" d="M 724.75 549.25 L 724.75 459.25 L 803.011719 398.597656 L 842.140625 459.25 L 920.402344 398.597656 L 959.53125 459.25 L 1037.792969 398.597656 L 1037.792969 488.597656 L 959.53125 549.25 L 920.402344 488.597656 L 842.140625 549.25 L 803.011719 488.597656 Z M 724.75 549.25 "/>
<path style=" stroke:none;fill-rule:nonzero;fill:rgb(0%,0%,0%);fill-opacity:1;" d="M 108.632812 533.003906 C 112.226562 533.003906 115.792969 532.328125 119.328125 530.972656 C 122.863281 529.621094 126.125 527.78125 129.113281 525.460938 C 132.101562 523.136719 134.71875 520.417969 136.960938 517.308594 C 139.203125 514.199219 140.828125 510.886719 141.835938 507.371094 L 131.71875 505.855469 C 131.113281 507.796875 130.164062 509.632812 128.871094 511.371094 C 127.578125 513.109375 126.042969 514.632812 124.265625 515.945312 C 122.488281 517.257812 120.550781 518.289062 118.449219 519.035156 C 116.347656 519.785156 114.207031 520.15625 112.027344 520.15625 C 109.519531 520.15625 107.238281 519.417969 105.179688 517.945312 C 103.117188 516.472656 101.320312 514.480469 99.785156 511.976562 C 98.25 509.472656 97.027344 506.585938 96.121094 503.3125 C 95.210938 500.039062 94.695312 496.605469 94.574219 493.011719 L 139.65625 493.011719 C 139.65625 489.132812 138.910156 485.507812 137.414062 482.132812 C 135.917969 478.761719 133.828125 475.8125 131.144531 473.289062 C 128.457031 470.761719 125.226562 468.785156 121.449219 467.351562 C 117.671875 465.914062 113.519531 465.199219 108.996094 465.199219 C 103.90625 465.199219 99.28125 466.109375 95.121094 467.925781 C 90.960938 469.742188 87.40625 472.257812 84.457031 475.46875 C 81.507812 478.679688 79.222656 482.476562 77.609375 486.859375 C 75.992188 491.246094 75.183594 496 75.183594 501.128906 C 75.183594 505.414062 76.054688 509.484375 77.789062 513.339844 C 79.527344 517.199219 81.910156 520.582031 84.941406 523.488281 C 87.96875 526.398438 91.515625 528.710938 95.574219 530.425781 C 99.632812 532.144531 103.988281 533.003906 108.632812 533.003906 Z M 116.996094 486.285156 L 94.695312 486.285156 C 94.898438 484.347656 95.332031 482.578125 96 480.984375 C 96.664062 479.386719 97.484375 478.023438 98.453125 476.894531 C 99.421875 475.761719 100.492188 474.894531 101.664062 474.289062 C 102.835938 473.683594 104.027344 473.378906 105.238281 473.378906 C 106.816406 473.378906 108.277344 473.691406 109.632812 474.316406 C 110.984375 474.945312 112.175781 475.824219 113.207031 476.953125 C 114.238281 478.085938 115.085938 479.4375 115.753906 481.011719 C 116.417969 482.589844 116.832031 484.347656 116.996094 486.285156 Z M 116.996094 486.285156 "/>
<path style=" stroke:none;fill-rule:nonzero;fill:rgb(0%,0%,0%);fill-opacity:1;" d="M 148.464844 470.046875 L 148.464844 531.546875 L 168.160156 531.546875 L 168.160156 464.59375 Z M 148.464844 470.046875 "/>
<path style=" stroke:none;fill-rule:nonzero;fill:rgb(0%,0%,0%);fill-opacity:1;" d="M 217.648438 487.011719 L 217.648438 531.546875 L 237.34375 531.546875 L 237.34375 485.011719 C 237.34375 482.265625 236.808594 479.691406 235.738281 477.289062 C 234.667969 474.882812 233.230469 472.78125 231.433594 470.984375 C 229.636719 469.1875 227.535156 467.773438 225.132812 466.742188 C 222.730469 465.714844 220.195312 465.199219 217.527344 465.199219 C 214.054688 465.199219 210.582031 465.714844 207.105469 466.742188 C 203.632812 467.773438 200.378906 469.402344 197.351562 471.621094 L 197.351562 466.53125 L 177.539062 466.53125 L 177.539062 531.546875 L 197.351562 531.546875 L 197.351562 483.921875 C 198.523438 482.832031 199.734375 481.84375 200.988281 480.953125 C 202.238281 480.066406 203.472656 479.308594 204.683594 478.679688 C 205.894531 478.054688 207.054688 477.570312 208.167969 477.226562 C 209.277344 476.882812 210.257812 476.710938 211.105469 476.710938 C 211.953125 476.710938 212.773438 476.933594 213.558594 477.378906 C 214.347656 477.820312 215.042969 478.480469 215.648438 479.347656 C 216.257812 480.214844 216.742188 481.296875 217.105469 482.589844 C 217.46875 483.882812 217.648438 485.355469 217.648438 487.011719 Z M 217.648438 487.011719 "/>
<path style=" stroke:none;fill-rule:nonzero;fill:rgb(0%,0%,0%);fill-opacity:1;" d="M 288.148438 527.730469 L 288.148438 531.546875 L 307.78125 531.546875 L 307.78125 434.902344 L 288.148438 440.355469 L 288.148438 466.894531 C 286.816406 466.328125 285.300781 465.90625 283.605469 465.625 C 281.90625 465.339844 280.109375 465.199219 278.210938 465.199219 C 273.242188 465.199219 268.585938 466.179688 264.242188 468.136719 C 259.902344 470.097656 256.113281 472.691406 252.882812 475.925781 C 249.652344 479.15625 247.097656 482.832031 245.21875 486.953125 C 243.339844 491.074219 242.398438 495.3125 242.398438 499.675781 C 242.398438 502.585938 242.753906 505.433594 243.460938 508.21875 C 244.167969 511.007812 245.148438 513.632812 246.398438 516.097656 C 247.652344 518.5625 249.175781 520.835938 250.972656 522.914062 C 252.769531 524.996094 254.761719 526.78125 256.941406 528.277344 C 259.125 529.769531 261.464844 530.933594 263.972656 531.761719 C 266.476562 532.589844 269.101562 533.003906 271.847656 533.003906 C 274.59375 533.003906 277.402344 532.539062 280.269531 531.609375 C 283.140625 530.679688 285.765625 529.386719 288.148438 527.730469 Z M 288.148438 487.253906 L 288.148438 518.582031 C 287.582031 519.269531 286.925781 519.90625 286.179688 520.492188 C 285.429688 521.078125 284.644531 521.582031 283.816406 522.003906 C 282.988281 522.429688 282.148438 522.753906 281.300781 522.972656 C 280.453125 523.195312 279.664062 523.308594 278.9375 523.308594 C 276.796875 523.308594 274.796875 522.570312 272.9375 521.097656 C 271.082031 519.621094 269.445312 517.644531 268.03125 515.15625 C 266.617188 512.675781 265.507812 509.796875 264.699219 506.523438 C 263.890625 503.25 263.488281 499.816406 263.488281 496.222656 C 263.488281 492.910156 263.839844 489.839844 264.546875 487.011719 C 265.253906 484.183594 266.214844 481.742188 267.425781 479.679688 C 268.636719 477.621094 270.050781 476.015625 271.667969 474.863281 C 273.28125 473.710938 275 473.136719 276.816406 473.136719 C 278.191406 473.136719 279.554688 473.480469 280.90625 474.167969 C 282.261719 474.855469 283.472656 475.8125 284.542969 477.046875 C 285.613281 478.277344 286.480469 479.761719 287.148438 481.5 C 287.8125 483.234375 288.148438 485.152344 288.148438 487.253906 Z M 288.148438 487.253906 "/>
<path style=" stroke:none;fill-rule:nonzero;fill:rgb(0%,0%,0%);fill-opacity:1;" d="M 355.917969 487.011719 L 355.917969 531.546875 L 375.730469 531.546875 L 375.730469 485.011719 C 375.730469 482.265625 375.238281 479.679688 374.246094 477.257812 C 373.257812 474.832031 371.902344 472.722656 370.1875 470.925781 C 368.472656 469.128906 366.449219 467.703125 364.128906 466.652344 C 361.804688 465.601562 359.332031 465.078125 356.707031 465.078125 C 353.191406 465.078125 349.574219 465.613281 345.859375 466.683594 C 342.144531 467.753906 338.769531 469.402344 335.742188 471.621094 L 335.742188 434.902344 L 315.804688 440.355469 L 315.804688 531.546875 L 335.742188 531.546875 L 335.742188 483.800781 C 336.871094 482.789062 338.101562 481.851562 339.4375 480.984375 C 340.769531 480.113281 342.09375 479.359375 343.40625 478.710938 C 344.71875 478.066406 345.949219 477.570312 347.101562 477.226562 C 348.253906 476.882812 349.234375 476.710938 350.039062 476.710938 C 351.777344 476.710938 353.191406 477.589844 354.28125 479.347656 C 355.371094 481.105469 355.917969 483.660156 355.917969 487.011719 Z M 355.917969 487.011719 "/>
<path style=" stroke:none;fill-rule:nonzero;fill:rgb(0%,0%,0%);fill-opacity:1;" d="M 416.355469 532.761719 C 421.527344 532.761719 426.3125 531.839844 430.71875 530.003906 C 435.121094 528.164062 438.925781 525.660156 442.140625 522.488281 C 445.351562 519.320312 447.863281 515.613281 449.683594 511.371094 C 451.5 507.128906 452.410156 502.605469 452.410156 497.796875 C 452.410156 493.234375 451.5 488.972656 449.683594 485.011719 C 447.863281 481.054688 445.351562 477.601562 442.140625 474.652344 C 438.925781 471.703125 435.109375 469.390625 430.6875 467.714844 C 426.261719 466.039062 421.464844 465.199219 416.296875 465.199219 C 411.125 465.199219 406.347656 466.058594 401.964844 467.773438 C 397.582031 469.492188 393.796875 471.875 390.605469 474.925781 C 387.414062 477.972656 384.917969 481.609375 383.121094 485.832031 C 381.324219 490.050781 380.425781 494.667969 380.425781 499.675781 C 380.425781 504.320312 381.324219 508.664062 383.121094 512.703125 C 384.917969 516.742188 387.414062 520.25 390.605469 523.214844 C 393.796875 526.1875 397.59375 528.519531 401.996094 530.214844 C 406.398438 531.914062 411.183594 532.761719 416.355469 532.761719 Z M 418.660156 524.824219 C 415.992188 524.824219 413.609375 524.003906 411.507812 522.367188 C 409.40625 520.734375 407.621094 518.519531 406.144531 515.734375 C 404.671875 512.945312 403.550781 509.695312 402.785156 505.976562 C 402.015625 502.261719 401.632812 498.304688 401.632812 494.101562 C 401.632812 491.316406 401.964844 488.648438 402.632812 486.105469 C 403.296875 483.558594 404.175781 481.316406 405.269531 479.378906 C 406.359375 477.4375 407.621094 475.894531 409.054688 474.742188 C 410.488281 473.589844 411.972656 473.015625 413.507812 473.015625 C 416.738281 473.015625 419.476562 473.824219 421.71875 475.441406 C 423.960938 477.054688 425.777344 479.238281 427.171875 481.984375 C 428.566406 484.730469 429.566406 487.941406 430.171875 491.617188 C 430.777344 495.292969 431.082031 499.210938 431.082031 503.371094 C 431.082031 506.199219 430.765625 508.90625 430.140625 511.492188 C 429.515625 514.078125 428.65625 516.359375 427.566406 518.339844 C 426.476562 520.320312 425.171875 521.894531 423.65625 523.066406 C 422.144531 524.238281 420.476562 524.824219 418.660156 524.824219 Z M 418.660156 524.824219 "/>
<path style=" stroke:none;fill-rule:nonzero;fill:rgb(0%,0%,0%);fill-opacity:1;" d="M 469.441406 465.320312 L 448.71875 465.320312 L 480.226562 533.003906 L 489.253906 533.003906 L 521.371094 465.320312 L 507.855469 465.320312 L 488.46875 506.097656 Z M 469.441406 465.320312 "/>
<path style=" stroke:none;fill-rule:nonzero;fill:rgb(0%,0%,0%);fill-opacity:1;" d="M 552.96875 533.003906 C 556.5625 533.003906 560.128906 532.328125 563.664062 530.972656 C 567.199219 529.621094 570.460938 527.78125 573.449219 525.460938 C 576.4375 523.136719 579.054688 520.417969 581.296875 517.308594 C 583.539062 514.199219 585.164062 510.886719 586.171875 507.371094 L 576.054688 505.855469 C 575.449219 507.796875 574.5 509.632812 573.207031 511.371094 C 571.914062 513.109375 570.378906 514.632812 568.601562 515.945312 C 566.824219 517.257812 564.882812 518.289062 562.785156 519.035156 C 560.683594 519.785156 558.542969 520.15625 556.363281 520.15625 C 553.855469 520.15625 551.574219 519.417969 549.515625 517.945312 C 547.453125 516.472656 545.65625 514.480469 544.121094 511.976562 C 542.585938 509.472656 541.363281 506.585938 540.457031 503.3125 C 539.546875 500.039062 539.03125 496.605469 538.910156 493.011719 L 583.992188 493.011719 C 583.992188 489.132812 583.246094 485.507812 581.75 482.132812 C 580.253906 478.761719 578.164062 475.8125 575.476562 473.289062 C 572.792969 470.761719 569.5625 468.785156 565.785156 467.351562 C 562.007812 465.914062 557.855469 465.199219 553.332031 465.199219 C 548.242188 465.199219 543.617188 466.109375 539.457031 467.925781 C 535.296875 469.742188 531.742188 472.257812 528.792969 475.46875 C 525.84375 478.679688 523.558594 482.476562 521.945312 486.859375 C 520.328125 491.246094 519.519531 496 519.519531 501.128906 C 519.519531 505.414062 520.390625 509.484375 522.125 513.339844 C 523.863281 517.199219 526.246094 520.582031 529.277344 523.488281 C 532.304688 526.398438 535.851562 528.710938 539.910156 530.425781 C 543.96875 532.144531 548.324219 533.003906 552.96875 533.003906 Z M 561.332031 486.285156 L 539.03125 486.285156 C 539.234375 484.347656 539.667969 482.578125 540.335938 480.984375 C 541 479.386719 541.820312 478.023438 542.789062 476.894531 C 543.757812 475.761719 544.828125 474.894531 546 474.289062 C 547.171875 473.683594 548.363281 473.378906 549.574219 473.378906 C 551.152344 473.378906 552.613281 473.691406 553.96875 474.316406 C 555.320312 474.945312 556.511719 475.824219 557.542969 476.953125 C 558.574219 478.085938 559.421875 479.4375 560.089844 481.011719 C 560.753906 482.589844 561.167969 484.347656 561.332031 486.285156 Z M 561.332031 486.285156 "/>
<path style=" stroke:none;fill-rule:nonzero;fill:rgb(0%,0%,0%);fill-opacity:1;" d="M 632 487.011719 L 632 531.546875 L 651.691406 531.546875 L 651.691406 485.011719 C 651.691406 482.265625 651.15625 479.691406 650.085938 477.289062 C 649.015625 474.882812 647.582031 472.78125 645.785156 470.984375 C 643.984375 469.1875 641.886719 467.773438 639.484375 466.742188 C 637.078125 465.714844 634.542969 465.199219 631.878906 465.199219 C 628.402344 465.199219 624.929688 465.714844 621.457031 466.742188 C 617.980469 467.773438 614.730469 469.402344 611.699219 471.621094 L 611.699219 466.53125 L 591.886719 466.53125 L 591.886719 531.546875 L 611.699219 531.546875 L 611.699219 483.921875 C 612.871094 482.832031 614.082031 481.84375 615.335938 480.953125 C 616.589844 480.066406 617.820312 479.308594 619.03125 478.679688 C 620.246094 478.054688 621.40625 477.570312 622.515625 477.226562 C 623.628906 476.882812 624.605469 476.710938 625.457031 476.710938 C 626.304688 476.710938 627.121094 476.933594 627.910156 477.378906 C 628.695312 477.820312 629.394531 478.480469 630 479.347656 C 630.605469 480.214844 631.089844 481.296875 631.453125 482.589844 C 631.816406 483.882812 632 485.355469 632 487.011719 Z M 632 487.011719 "/>
<path style=" stroke:none;fill-rule:nonzero;fill:rgb(25.1%,38.8%,84.7%);fill-opacity:1;" d="M 171.75 446.125 C 171.75 453.578125 165.707031 459.625 158.25 459.625 C 150.796875 459.625 144.75 453.578125 144.75 446.125 C 144.75 438.667969 150.796875 432.625 158.25 432.625 C 165.707031 432.625 171.75 438.667969 171.75 446.125 "/>
<path style=" stroke:none;fill-rule:nonzero;fill:rgb(0%,0%,0%);fill-opacity:1;" d="M 185.574219 353.914062 C 185.574219 368.660156 183.914062 380.566406 180.597656 389.628906 C 177.28125 398.703125 172.566406 405.742188 166.445312 410.753906 C 160.332031 415.769531 152.992188 419.121094 144.441406 420.820312 C 135.890625 422.507812 126.375 423.355469 115.910156 423.355469 C 101.75 423.355469 90.910156 421.148438 83.398438 416.722656 C 75.878906 412.296875 72.117188 406.992188 72.117188 400.796875 C 72.117188 395.636719 74.210938 391.289062 78.417969 387.75 C 82.621094 384.210938 88.261719 382.445312 95.335938 382.445312 C 100.648438 382.445312 104.890625 383.882812 108.054688 386.757812 C 111.226562 389.628906 113.847656 392.472656 115.910156 395.269531 C 118.265625 398.367188 120.257812 400.429688 121.878906 401.460938 C 123.5 402.492188 124.976562 403.011719 126.304688 403.011719 C 129.101562 403.011719 131.242188 401.355469 132.71875 398.035156 C 134.191406 394.71875 134.925781 388.269531 134.925781 378.6875 L 134.925781 196.882812 L 185.574219 182.949219 Z M 257.707031 187.808594 L 257.707031 304.8125 C 257.707031 308.058594 258.332031 311.117188 259.585938 313.992188 C 260.839844 316.863281 262.574219 319.339844 264.78125 321.402344 C 267 323.46875 269.574219 325.125 272.523438 326.378906 C 275.472656 327.632812 278.644531 328.257812 282.039062 328.257812 C 285.867188 328.257812 290.226562 326.113281 295.527344 322.398438 C 303.929688 316.511719 309.019531 312.46875 309.019531 307.683594 C 309.019531 306.539062 309.019531 187.808594 309.019531 187.808594 L 359.445312 187.808594 L 359.445312 353.914062 L 309.019531 353.914062 L 309.019531 338.433594 C 302.382812 344.035156 295.308594 348.527344 287.785156 351.921875 C 280.265625 355.3125 272.96875 357.011719 265.890625 357.011719 C 257.636719 357.011719 249.964844 355.644531 242.886719 352.914062 C 235.808594 350.1875 229.617188 346.464844 224.316406 341.75 C 219.003906 337.03125 214.835938 331.5 211.8125 325.15625 C 208.792969 318.820312 207.277344 312.035156 207.277344 304.8125 L 207.277344 187.808594 Z M 430.160156 353.914062 L 379.957031 353.914062 L 379.957031 121.019531 L 430.160156 107.089844 Z M 451.132812 196.882812 L 501.558594 182.949219 L 501.558594 353.914062 L 451.132812 353.914062 Z M 606.921875 268.097656 C 602.054688 270.167969 597.148438 272.558594 592.210938 275.289062 C 587.273438 278.015625 582.769531 281.003906 578.71875 284.246094 C 574.660156 287.484375 571.382812 290.957031 568.875 294.640625 C 566.371094 298.324219 565.117188 302.160156 565.117188 306.140625 C 565.117188 309.238281 565.519531 312.226562 566.332031 315.097656 C 567.140625 317.972656 568.289062 320.441406 569.761719 322.503906 C 571.238281 324.566406 572.859375 326.226562 574.632812 327.480469 C 576.398438 328.734375 578.316406 329.359375 580.378906 329.359375 C 584.503906 329.359375 588.671875 328.105469 592.875 325.601562 C 597.078125 323.09375 601.753906 319.929688 606.921875 316.09375 Z M 657.5625 353.914062 L 606.921875 353.914062 L 606.921875 340.640625 C 604.117188 343.003906 601.386719 345.179688 598.734375 347.167969 C 596.085938 349.15625 593.097656 350.890625 589.777344 352.363281 C 586.460938 353.839844 582.738281 354.976562 578.605469 355.796875 C 574.476562 356.605469 569.609375 357.011719 564.015625 357.011719 C 556.34375 357.011719 549.449219 355.902344 543.335938 353.695312 C 537.210938 351.476562 532.015625 348.457031 527.742188 344.621094 C 523.464844 340.792969 520.183594 336.253906 517.898438 331.019531 C 515.613281 325.789062 514.46875 320.074219 514.46875 313.882812 C 514.46875 307.539062 515.683594 301.792969 518.121094 296.625 C 520.550781 291.46875 523.867188 286.828125 528.070312 282.695312 C 532.277344 278.566406 537.175781 274.882812 542.777344 271.636719 C 548.378906 268.394531 554.394531 265.40625 560.804688 262.675781 C 567.21875 259.949219 573.890625 257.449219 580.820312 255.164062 C 587.746094 252.878906 594.609375 250.703125 601.386719 248.636719 L 606.921875 247.308594 L 606.921875 230.945312 C 606.921875 220.328125 604.886719 212.808594 600.839844 208.382812 C 596.78125 203.960938 591.359375 201.75 584.582031 201.75 C 576.617188 201.75 571.085938 203.667969 567.988281 207.496094 C 564.894531 211.335938 563.34375 215.972656 563.34375 221.429688 C 563.34375 224.527344 563.015625 227.550781 562.347656 230.503906 C 561.691406 233.453125 560.546875 236.027344 558.925781 238.242188 C 557.304688 240.453125 554.980469 242.226562 551.957031 243.546875 C 548.9375 244.878906 545.136719 245.542969 540.566406 245.542969 C 533.492188 245.542969 527.742188 243.511719 523.320312 239.460938 C 518.894531 235.402344 516.683594 230.28125 516.683594 224.082031 C 516.683594 218.335938 518.632812 212.992188 522.539062 208.054688 C 526.453125 203.109375 531.71875 198.867188 538.359375 195.339844 C 544.992188 191.792969 552.660156 188.996094 561.355469 186.929688 C 570.054688 184.867188 579.269531 183.835938 589 183.835938 C 600.945312 183.835938 611.230469 184.90625 619.859375 187.039062 C 628.480469 189.179688 635.597656 192.234375 641.199219 196.21875 C 646.800781 200.199219 650.929688 204.992188 653.578125 210.59375 C 656.238281 216.195312 657.5625 222.46875 657.5625 229.394531 Z M 657.5625 353.914062 "/>
<path style=" stroke:none;fill-rule:nonzero;fill:rgb(25.1%,38.8%,84.7%);fill-opacity:1;" d="M 195.515625 140.21875 C 195.515625 159.136719 180.1875 174.457031 161.277344 174.457031 C 142.371094 174.457031 127.039062 159.136719 127.039062 140.21875 C 127.039062 121.3125 142.371094 105.980469 161.277344 105.980469 C 180.1875 105.980469 195.515625 121.3125 195.515625 140.21875 "/>
<path style=" stroke:none;fill-rule:nonzero;fill:rgb(22%,59.6%,14.9%);fill-opacity:1;" d="M 554.242188 68.964844 C 554.242188 87.875 538.910156 103.207031 520 103.207031 C 501.085938 103.207031 485.761719 87.875 485.761719 68.964844 C 485.761719 50.058594 501.085938 34.726562 520 34.726562 C 538.910156 34.726562 554.242188 50.058594 554.242188 68.964844 "/>
<path style=" stroke:none;fill-rule:nonzero;fill:rgb(58.4%,34.5%,69.8%);fill-opacity:1;" d="M 595.367188 140.21875 C 595.367188 159.136719 580.035156 174.457031 561.125 174.457031 C 542.21875 174.457031 526.886719 159.136719 526.886719 140.21875 C 526.886719 121.3125 542.21875 105.980469 561.125 105.980469 C 580.035156 105.980469 595.367188 121.3125 595.367188 140.21875 "/>
<path style=" stroke:none;fill-rule:nonzero;fill:rgb(79.6%,23.5%,20%);fill-opacity:1;" d="M 513.101562 140.21875 C 513.101562 159.136719 497.769531 174.457031 478.859375 174.457031 C 459.945312 174.457031 444.621094 159.136719 444.621094 140.21875 C 444.621094 121.3125 459.945312 105.980469 478.859375 105.980469 C 497.769531 105.980469 513.101562 121.3125 513.101562 140.21875 "/>
</g>
</svg>
