<?xml version="1.0" encoding="UTF-8"?>
<svg xmlns="http://www.w3.org/2000/svg" xmlns:xlink="http://www.w3.org/1999/xlink" width="420pt" height="600pt" viewBox="0 0 420 600" version="1.1">
<g id="surface79">
<path style=" stroke:none;fill-rule:nonzero;fill:rgb(79.6%,23.5%,20%);fill-opacity:1;" d="M 50 190 L 50 100 L 127.398438 43.300781 L 167.898438 100 L 245.300781 43.300781 L 285.800781 100 L 363.199219 43.300781 L 363.199219 133.300781 L 285.800781 190 L 245.300781 133.300781 L 167.898438 190 L 127.398438 133.300781 Z M 50 190 "/>
<path style=" stroke:none;fill-rule:nonzero;fill:rgb(22%,59.6%,14.9%);fill-opacity:1;" d="M 50 370 L 50 280 L 127.398438 223.300781 L 167.898438 280 L 245.300781 223.300781 L 285.800781 280 L 363.199219 223.300781 L 363.199219 313.300781 L 285.800781 370 L 245.300781 313.300781 L 167.898438 370 L 127.398438 313.300781 Z M 50 370 "/>
<path style=" stroke:none;fill-rule:nonzero;fill:rgb(58.4%,34.5%,69.8%);fill-opacity:1;" d="M 50 550 L 50 460 L 127.398438 403.300781 L 167.898438 460 L 245.300781 403.300781 L 285.800781 460 L 363.199219 403.300781 L 363.199219 493.300781 L 285.800781 550 L 245.300781 493.300781 L 167.898438 550 L 127.398438 493.300781 Z M 50 550 "/>
</g>
</svg>
