<?xml version="1.0" encoding="UTF-8"?>
<svg xmlns="http://www.w3.org/2000/svg" xmlns:xlink="http://www.w3.org/1999/xlink" width="419pt" height="599pt" viewBox="0 0 419 599" version="1.1">
<g id="surface22">
<path style=" stroke:none;fill-rule:nonzero;fill:rgb(79.6%,23.5%,20%);fill-opacity:1;" d="M 49.75 189.25 L 49.75 99.25 L 128.011719 38.597656 L 167.140625 99.25 L 245.402344 38.597656 L 284.53125 99.25 L 362.792969 38.597656 L 362.792969 128.597656 L 284.53125 189.25 L 245.402344 128.597656 L 167.140625 189.25 L 128.011719 128.597656 Z M 49.75 189.25 "/>
<path style=" stroke:none;fill-rule:nonzero;fill:rgb(22%,59.6%,14.9%);fill-opacity:1;" d="M 49.75 369.25 L 49.75 279.25 L 128.011719 218.597656 L 167.140625 279.25 L 245.402344 218.597656 L 284.53125 279.25 L 362.792969 218.597656 L 362.792969 308.597656 L 284.53125 369.25 L 245.402344 308.597656 L 167.140625 369.25 L 128.011719 308.597656 Z M 49.75 369.25 "/>
<path style=" stroke:none;fill-rule:nonzero;fill:rgb(58.4%,34.5%,69.8%);fill-opacity:1;" d="M 49.75 549.25 L 49.75 459.25 L 128.011719 398.597656 L 167.140625 459.25 L 245.402344 398.597656 L 284.53125 459.25 L 362.792969 398.597656 L 362.792969 488.597656 L 284.53125 549.25 L 245.402344 488.597656 L 167.140625 549.25 L 128.011719 488.597656 Z M 49.75 549.25 "/>
</g>
</svg>
